# Blender v2.79 (sub 0) OBJ File: 'Chassis.blend'
# www.blender.org
mtllib P_A.mtl
o Cylinder.013
v 151.500000 -10.066234 -3.000000
v 151.500000 -10.066234 3.000000
v 151.500000 9.933767 -3.000000
v 151.500000 9.933767 3.000000
v 159.993454 -10.066234 -3.000000
v 159.993454 -10.066234 3.000000
v 159.993454 9.933767 -3.000000
v 159.993454 9.933767 3.000000
v 154.000000 1.600000 -5.777669
v 154.111603 1.596102 -5.777669
v 154.222672 1.584429 -5.777669
v 154.332657 1.565036 -5.777669
v 154.441025 1.538018 -5.777669
v 154.547226 1.503508 -5.777669
v 154.650772 1.461673 -5.777669
v 154.751160 1.412716 -5.777669
v 154.847870 1.356877 -5.777669
v 154.940460 1.294427 -5.777669
v 155.028458 1.225671 -5.777669
v 155.111450 1.150943 -5.777669
v 155.189026 1.070609 -5.777669
v 155.260818 0.985058 -5.777669
v 155.326462 0.894708 -5.777669
v 155.385635 0.800000 -5.777669
v 155.438065 0.701394 -5.777669
v 155.483490 0.599370 -5.777669
v 155.521683 0.494427 -5.777669
v 155.552475 0.387075 -5.777669
v 155.575699 0.277837 -5.777669
v 155.591232 0.167246 -5.777669
v 155.599030 0.055839 -5.777669
v 155.599030 -0.055839 -5.777669
v 155.591232 -0.167245 -5.777669
v 155.575699 -0.277837 -5.777669
v 155.552475 -0.387075 -5.777669
v 155.521698 -0.494427 -5.777669
v 155.483490 -0.599370 -5.777669
v 155.438065 -0.701393 -5.777669
v 155.385635 -0.800000 -5.777669
v 155.326462 -0.894708 -5.777669
v 155.260818 -0.985058 -5.777669
v 155.189026 -1.070609 -5.777669
v 155.111450 -1.150944 -5.777669
v 155.028458 -1.225671 -5.777669
v 154.940460 -1.294427 -5.777669
v 154.847870 -1.356877 -5.777669
v 154.751160 -1.412716 -5.777669
v 154.650772 -1.461673 -5.777669
v 154.547226 -1.503508 -5.777669
v 154.441025 -1.538019 -5.777669
v 154.332657 -1.565036 -5.777669
v 154.222672 -1.584429 -5.777669
v 154.111603 -1.596102 -5.777669
v 154.000000 -1.600000 -5.777669
v 153.888382 -1.596102 -5.777669
v 153.777328 -1.584428 -5.777669
v 153.667343 -1.565035 -5.777669
v 153.558975 -1.538018 -5.777669
v 153.452759 -1.503507 -5.777669
v 153.349213 -1.461672 -5.777669
v 153.248840 -1.412715 -5.777669
v 153.152130 -1.356875 -5.777669
v 153.059540 -1.294425 -5.777669
v 152.971542 -1.225669 -5.777669
v 152.888550 -1.150941 -5.777669
v 152.810959 -1.070606 -5.777669
v 152.739182 -0.985056 -5.777669
v 152.673538 -0.894706 -5.777669
v 152.614365 -0.799997 -5.777669
v 152.561935 -0.701391 -5.777669
v 152.516510 -0.599367 -5.777669
v 152.478302 -0.494424 -5.777669
v 152.447525 -0.387071 -5.777669
v 152.424301 -0.277833 -5.777669
v 152.408768 -0.167242 -5.777669
v 152.400970 -0.055835 -5.777669
v 152.400970 0.055843 -5.777669
v 152.408768 0.167250 -5.777669
v 152.424301 0.277842 -5.777669
v 152.447525 0.387080 -5.777669
v 152.478317 0.494432 -5.777669
v 152.516510 0.599375 -5.777669
v 152.561935 0.701398 -5.777669
v 152.614365 0.800004 -5.777669
v 152.673538 0.894713 -5.777669
v 152.739182 0.985063 -5.777669
v 152.810974 1.070613 -5.777669
v 152.888550 1.150948 -5.777669
v 152.971542 1.225675 -5.777669
v 153.059555 1.294431 -5.777669
v 153.152130 1.356880 -5.777669
v 153.248856 1.412719 -5.777669
v 153.349228 1.461675 -5.777669
v 153.452774 1.503510 -5.777669
v 153.558990 1.538020 -5.777669
v 153.667343 1.565037 -5.777669
v 153.777328 1.584430 -5.777669
v 153.888397 1.596103 -5.777669
v 155.189026 -1.070609 -3.000000
v 155.483490 -0.599370 -3.000000
v 155.521698 -0.494427 -3.000000
v 155.438065 -0.701393 -3.000000
v 155.326462 -0.894708 -3.000000
v 155.260818 -0.985058 -3.000000
v 155.599030 0.055839 -3.000000
v 155.591232 0.167246 -3.000000
v 155.575699 0.277837 -3.000000
v 155.521683 0.494427 -3.000000
v 155.552475 0.387075 -3.000000
v 155.483490 0.599370 -3.000000
v 155.599030 -0.055839 -3.000000
v 155.552475 -0.387075 -3.000000
v 155.575699 -0.277837 -3.000000
v 155.591232 -0.167245 -3.000000
v 155.385635 -0.800000 -3.000000
v 155.385635 0.800000 -3.000000
v 155.438065 0.701394 -3.000000
v 154.547226 -1.503508 -3.000000
v 154.940460 -1.294427 -3.000000
v 155.028458 -1.225671 -3.000000
v 154.650772 -1.461673 -3.000000
v 154.847870 -1.356877 -3.000000
v 155.111450 -1.150944 -3.000000
v 154.751160 -1.412716 -3.000000
v 153.452759 -1.503507 -3.000000
v 154.000000 1.600000 -3.000000
v 154.111603 1.596102 -3.000000
v 153.349213 -1.461672 -3.000000
v 154.222672 1.584429 -3.000000
v 152.400970 -0.055835 -3.000000
v 152.400970 -0.052537 -3.000000
v 152.400970 0.055843 -3.000000
v 152.408768 0.167250 -3.000000
v 152.478317 0.494432 -3.000000
v 152.516510 0.599375 -3.000000
v 152.561935 0.701398 -3.000000
v 152.673538 0.894713 -3.000000
v 152.614365 0.800004 -3.000000
v 152.739182 0.985063 -3.000000
v 152.447525 0.387080 -3.000000
v 152.424301 0.277842 -3.000000
v 153.248840 -1.412715 -3.000000
v 154.332657 1.565036 -3.000000
v 153.152130 -1.356875 -3.000000
v 154.547226 1.503508 -3.000000
v 154.441025 1.538018 -3.000000
v 154.650772 1.461673 -3.000000
v 155.189026 1.070609 -3.000000
v 155.111450 1.150943 -3.000000
v 155.260818 0.985058 -3.000000
v 153.059540 -1.294425 -3.000000
v 152.408768 -0.167242 -3.000000
v 152.971542 -1.225669 -3.000000
v 152.739182 -0.985056 -3.000000
v 154.847870 1.356877 -3.000000
v 155.028458 1.225671 -3.000000
v 154.940460 1.294427 -3.000000
v 154.751160 1.412716 -3.000000
v 152.810959 -1.070606 -3.000000
v 152.888550 -1.150941 -3.000000
v 155.326462 0.894708 -3.000000
v 152.447525 -0.387071 -3.000000
v 152.614365 -0.799997 -3.000000
v 152.424301 -0.277833 -3.000000
v 152.478302 -0.494424 -3.000000
v 153.248856 1.412719 -3.000000
v 153.152130 1.356880 -3.000000
v 153.349228 1.461675 -3.000000
v 152.888550 1.150948 -3.000000
v 153.888397 1.596103 -3.000000
v 153.777328 1.584430 -3.000000
v 153.059555 1.294431 -3.000000
v 152.971542 1.225675 -3.000000
v 152.810974 1.070613 -3.000000
v 153.452774 1.503510 -3.000000
v 153.558990 1.538020 -3.000000
v 153.667343 1.565037 -3.000000
v 154.222672 -1.584429 -3.000000
v 152.561935 -0.701391 -3.000000
v 152.673538 -0.894706 -3.000000
v 154.332657 -1.565036 -3.000000
v 153.888382 -1.596102 -3.000000
v 153.777328 -1.584428 -3.000000
v 154.000000 -1.600000 -3.000000
v 153.667343 -1.565035 -3.000000
v 154.441025 -1.538019 -3.000000
v 152.516510 -0.599367 -3.000000
v 154.111603 -1.596102 -3.000000
v 153.558975 -1.538018 -3.000000
v 159.993454 9.933767 1.715301
v 159.993454 -10.066234 -1.751818
v 154.377533 9.933764 -1.751817
v 159.993454 9.933767 -1.751818
v 154.377533 -10.066234 -1.751817
v 159.993454 -10.066234 1.715301
v 154.377533 9.933764 1.715301
v 154.377533 -10.066234 1.715302
vn -1.0000 0.0000 0.0000
vn 0.0000 1.0000 0.0000
vn 1.0000 0.0000 0.0000
vn 0.0000 -1.0000 0.0000
vn 0.0000 0.0000 -1.0000
vn 0.0000 0.0000 1.0000
vn 0.0349 0.9994 0.0000
vn 0.1045 0.9945 0.0000
vn 0.1737 0.9848 0.0000
vn 0.2419 0.9703 0.0000
vn 0.3091 0.9510 0.0000
vn 0.3746 0.9272 0.0000
vn 0.4384 0.8988 0.0000
vn 0.5000 0.8660 0.0000
vn 0.5591 0.8291 0.0000
vn 0.6156 0.7881 0.0000
vn 0.6692 0.7431 0.0000
vn 0.7194 0.6946 0.0000
vn 0.7660 0.6428 0.0000
vn 0.8091 0.5877 0.0000
vn 0.8481 0.5299 0.0000
vn 0.8830 0.4695 0.0000
vn 0.9135 0.4069 0.0000
vn 0.9396 0.3421 0.0000
vn 0.9613 0.2757 0.0000
vn 0.9781 0.2080 0.0000
vn 0.9903 0.1391 0.0000
vn 0.9976 0.0698 0.0000
vn 0.9976 -0.0698 0.0000
vn 0.9903 -0.1389 0.0000
vn 0.9781 -0.2080 0.0000
vn 0.9612 -0.2758 0.0000
vn 0.9396 -0.3421 0.0000
vn 0.9136 -0.4067 0.0000
vn 0.8830 -0.4695 0.0000
vn 0.8481 -0.5299 0.0000
vn 0.8091 -0.5877 0.0000
vn 0.7659 -0.6429 0.0000
vn 0.7194 -0.6946 0.0000
vn 0.6691 -0.7431 0.0000
vn 0.6158 -0.7879 0.0000
vn 0.5591 -0.8291 0.0000
vn 0.5000 -0.8661 0.0000
vn 0.4383 -0.8988 0.0000
vn 0.3746 -0.9272 0.0000
vn 0.3091 -0.9510 0.0000
vn 0.2419 -0.9703 0.0000
vn 0.1736 -0.9848 0.0000
vn 0.1045 -0.9945 0.0000
vn 0.0349 -0.9994 0.0000
vn -0.0349 -0.9994 0.0000
vn -0.1045 -0.9945 0.0000
vn -0.1736 -0.9848 0.0000
vn -0.2419 -0.9703 0.0000
vn -0.3090 -0.9511 0.0000
vn -0.3746 -0.9272 0.0000
vn -0.4384 -0.8988 0.0000
vn -0.5000 -0.8660 0.0000
vn -0.5591 -0.8291 0.0000
vn -0.6157 -0.7880 0.0000
vn -0.6692 -0.7431 0.0000
vn -0.7194 -0.6946 0.0000
vn -0.7660 -0.6428 0.0000
vn -0.8090 -0.5879 0.0000
vn -0.8481 -0.5299 0.0000
vn -0.8830 -0.4695 0.0000
vn -0.9135 -0.4069 0.0000
vn -0.9396 -0.3421 0.0000
vn -0.9613 -0.2755 0.0000
vn -0.9781 -0.2080 0.0000
vn -0.9903 -0.1391 0.0000
vn -0.9976 -0.0697 0.0000
vn -0.9975 0.0700 0.0000
vn -0.9903 0.1391 -0.0000
vn -0.9781 0.2080 0.0000
vn -0.9613 0.2757 0.0000
vn -0.9397 0.3420 0.0000
vn -0.9136 0.4065 0.0000
vn -0.8830 0.4695 0.0000
vn -0.8481 0.5299 0.0000
vn -0.8091 0.5877 0.0000
vn -0.7659 0.6429 0.0000
vn -0.7193 0.6947 0.0000
vn -0.6690 0.7432 0.0000
vn -0.6157 0.7880 0.0000
vn -0.5593 0.8289 0.0000
vn -0.5000 0.8661 0.0000
vn -0.4384 0.8988 0.0000
vn -0.3746 0.9272 0.0000
vn -0.3089 0.9511 0.0000
vn -0.2420 0.9703 0.0000
vn -0.1737 0.9848 0.0000
vn -0.1045 0.9945 0.0000
vn -0.0349 0.9994 0.0000
vn 0.1736 0.9848 0.0000
vn 0.3090 0.9511 0.0000
vn 0.4383 0.8988 0.0000
vn 0.5592 0.8290 0.0000
vn 0.6158 0.7879 0.0000
vn 0.6690 0.7432 0.0000
vn 0.7659 0.6429 0.0000
vn 0.8090 0.5879 0.0000
vn 0.8482 0.5297 0.0000
vn 0.9136 0.4067 0.0000
vn 0.9398 0.3418 0.0000
vn 0.9612 0.2758 0.0000
vn 0.9903 0.1389 0.0000
vn 0.9903 -0.1391 0.0000
vn 0.9614 -0.2753 0.0000
vn 0.9135 -0.4069 0.0000
vn 0.7660 -0.6428 0.0000
vn 0.7193 -0.6947 0.0000
vn 0.6157 -0.7880 0.0000
vn 0.5592 -0.8290 0.0000
vn 0.5000 -0.8660 0.0000
vn 0.4384 -0.8988 0.0000
vn 0.1737 -0.9848 0.0000
vn -0.1737 -0.9848 0.0000
vn -0.3091 -0.9510 0.0000
vn -0.6158 -0.7879 0.0000
vn -0.6690 -0.7432 0.0000
vn -0.7192 -0.6948 0.0000
vn -0.7661 -0.6427 0.0000
vn -0.8091 -0.5877 0.0000
vn -0.9136 -0.4065 0.0000
vn -0.9613 -0.2757 0.0000
vn -0.9975 -0.0700 0.0000
vn -0.9976 0.0697 -0.0000
vn -0.9396 0.3421 0.0000
vn -0.9135 0.4069 0.0000
vn -0.8090 0.5879 0.0000
vn -0.7661 0.6427 0.0000
vn -0.7194 0.6946 0.0000
vn -0.6692 0.7431 0.0000
vn -0.6156 0.7881 0.0000
vn -0.5591 0.8291 0.0000
vn -0.3091 0.9510 0.0000
vn -0.2419 0.9703 0.0000
vn -0.1736 0.9848 0.0000
vn -0.0001 0.0000 -1.0000
vn 0.0001 0.0000 -1.0000
vn -0.0008 0.0000 -1.0000
usemtl Material
s off
f 2//1 3//1 1//1
f 196//2 192//2 3//2
f 193//3 5//3 7//3
f 197//4 2//4 1//4
f 3//5 127//5 126//5
f 4//6 6//6 8//6
f 126//7 10//7 9//7
f 127//8 11//8 10//8
f 129//9 12//9 11//9
f 143//10 13//10 12//10
f 146//11 14//11 13//11
f 145//12 15//12 14//12
f 147//13 16//13 15//13
f 158//14 17//14 16//14
f 155//15 18//15 17//15
f 157//16 19//16 18//16
f 156//17 20//17 19//17
f 149//18 21//18 20//18
f 148//19 22//19 21//19
f 150//20 23//20 22//20
f 161//21 24//21 23//21
f 116//22 25//22 24//22
f 117//23 26//23 25//23
f 110//24 27//24 26//24
f 108//25 28//25 27//25
f 109//26 29//26 28//26
f 107//27 30//27 29//27
f 106//28 31//28 30//28
f 105//3 32//3 31//3
f 111//29 33//29 32//29
f 114//30 34//30 33//30
f 113//31 35//31 34//31
f 112//32 36//32 35//32
f 101//33 37//33 36//33
f 100//34 38//34 37//34
f 102//35 39//35 38//35
f 115//36 40//36 39//36
f 103//37 41//37 40//37
f 104//38 42//38 41//38
f 99//39 43//39 42//39
f 123//40 44//40 43//40
f 120//41 45//41 44//41
f 119//42 46//42 45//42
f 122//43 47//43 46//43
f 124//44 48//44 47//44
f 121//45 49//45 48//45
f 118//46 50//46 49//46
f 186//47 51//47 50//47
f 181//48 52//48 51//48
f 178//49 53//49 52//49
f 188//50 54//50 53//50
f 184//51 55//51 54//51
f 182//52 56//52 55//52
f 183//53 57//53 56//53
f 185//54 58//54 57//54
f 189//55 59//55 58//55
f 125//56 60//56 59//56
f 128//57 61//57 60//57
f 142//58 62//58 61//58
f 144//59 63//59 62//59
f 151//60 64//60 63//60
f 153//61 65//61 64//61
f 160//62 66//62 65//62
f 159//63 67//63 66//63
f 154//64 68//64 67//64
f 180//65 69//65 68//65
f 163//66 70//66 69//66
f 179//67 71//67 70//67
f 187//68 72//68 71//68
f 165//69 73//69 72//69
f 162//70 74//70 73//70
f 164//71 75//71 74//71
f 152//72 76//72 75//72
f 131//1 132//1 77//1
f 132//73 78//73 77//73
f 133//74 79//74 78//74
f 141//75 80//75 79//75
f 140//76 81//76 80//76
f 134//77 82//77 81//77
f 135//78 83//78 82//78
f 136//79 84//79 83//79
f 138//80 85//80 84//80
f 137//81 86//81 85//81
f 139//82 87//82 86//82
f 174//83 88//83 87//83
f 169//84 89//84 88//84
f 173//85 90//85 89//85
f 172//86 91//86 90//86
f 167//87 92//87 91//87
f 166//88 93//88 92//88
f 168//89 94//89 93//89
f 175//90 95//90 94//90
f 176//91 96//91 95//91
f 177//92 97//92 96//92
f 171//93 98//93 97//93
f 170//94 9//94 98//94
f 60//5 76//5 92//5
f 182//5 184//5 1//5
f 192//3 197//3 194//3
f 190//3 6//3 195//3
f 194//6 193//6 192//6
f 196//5 195//5 197//5
f 2//1 4//1 3//1
f 4//2 8//2 196//2
f 8//2 190//2 196//2
f 193//2 7//2 192//2
f 7//2 3//2 192//2
f 4//2 196//2 3//2
f 193//3 191//3 5//3
f 1//4 5//4 194//4
f 5//4 191//4 194//4
f 195//4 6//4 197//4
f 6//4 2//4 197//4
f 1//4 194//4 197//4
f 7//5 111//5 105//5
f 7//5 105//5 106//5
f 132//5 131//5 3//5
f 133//5 132//5 3//5
f 7//5 106//5 107//5
f 7//5 107//5 109//5
f 141//5 133//5 3//5
f 140//5 141//5 3//5
f 7//5 109//5 108//5
f 7//5 108//5 110//5
f 134//5 140//5 3//5
f 135//5 134//5 3//5
f 3//5 7//5 146//5
f 7//5 110//5 117//5
f 7//5 117//5 116//5
f 136//5 135//5 3//5
f 138//5 136//5 3//5
f 7//5 116//5 161//5
f 7//5 161//5 150//5
f 137//5 138//5 3//5
f 139//5 137//5 3//5
f 7//5 150//5 148//5
f 7//5 148//5 149//5
f 174//5 139//5 3//5
f 169//5 174//5 3//5
f 7//5 149//5 156//5
f 7//5 156//5 157//5
f 173//5 169//5 3//5
f 172//5 173//5 3//5
f 7//5 157//5 155//5
f 7//5 155//5 158//5
f 167//5 172//5 3//5
f 166//5 167//5 3//5
f 7//5 158//5 147//5
f 7//5 147//5 145//5
f 168//5 166//5 3//5
f 175//5 168//5 3//5
f 7//5 145//5 146//5
f 176//5 175//5 3//5
f 177//5 176//5 3//5
f 3//5 146//5 143//5
f 3//5 143//5 129//5
f 171//5 177//5 3//5
f 170//5 171//5 3//5
f 3//5 129//5 127//5
f 126//5 170//5 3//5
f 4//6 2//6 6//6
f 126//7 127//7 10//7
f 127//8 129//8 11//8
f 129//95 143//95 12//95
f 143//10 146//10 13//10
f 146//96 145//96 14//96
f 145//12 147//12 15//12
f 147//97 158//97 16//97
f 158//14 155//14 17//14
f 155//98 157//98 18//98
f 157//99 156//99 19//99
f 156//100 149//100 20//100
f 149//18 148//18 21//18
f 148//101 150//101 22//101
f 150//102 161//102 23//102
f 161//103 116//103 24//103
f 116//22 117//22 25//22
f 117//104 110//104 26//104
f 110//105 108//105 27//105
f 108//106 109//106 28//106
f 109//26 107//26 29//26
f 107//107 106//107 30//107
f 106//28 105//28 31//28
f 105//3 111//3 32//3
f 111//29 114//29 33//29
f 114//108 113//108 34//108
f 113//31 112//31 35//31
f 112//109 101//109 36//109
f 101//33 100//33 37//33
f 100//110 102//110 38//110
f 102//35 115//35 39//35
f 115//36 103//36 40//36
f 103//37 104//37 41//37
f 104//111 99//111 42//111
f 99//112 123//112 43//112
f 123//40 120//40 44//40
f 120//113 119//113 45//113
f 119//114 122//114 46//114
f 122//115 124//115 47//115
f 124//116 121//116 48//116
f 121//45 118//45 49//45
f 118//46 186//46 50//46
f 186//47 181//47 51//47
f 181//117 178//117 52//117
f 178//49 188//49 53//49
f 188//50 184//50 54//50
f 184//51 182//51 55//51
f 182//52 183//52 56//52
f 183//118 185//118 57//118
f 185//54 189//54 58//54
f 189//119 125//119 59//119
f 125//56 128//56 60//56
f 128//57 142//57 61//57
f 142//58 144//58 62//58
f 144//59 151//59 63//59
f 151//120 153//120 64//120
f 153//121 160//121 65//121
f 160//122 159//122 66//122
f 159//123 154//123 67//123
f 154//124 180//124 68//124
f 180//65 163//65 69//65
f 163//66 179//66 70//66
f 179//125 187//125 71//125
f 187//68 165//68 72//68
f 165//126 162//126 73//126
f 162//70 164//70 74//70
f 164//71 152//71 75//71
f 152//127 130//127 76//127
f 77//1 76//1 131//1
f 76//1 130//1 131//1
f 132//128 133//128 78//128
f 133//74 141//74 79//74
f 141//75 140//75 80//75
f 140//76 134//76 81//76
f 134//129 135//129 82//129
f 135//130 136//130 83//130
f 136//79 138//79 84//79
f 138//80 137//80 85//80
f 137//131 139//131 86//131
f 139//132 174//132 87//132
f 174//133 169//133 88//133
f 169//134 173//134 89//134
f 173//135 172//135 90//135
f 172//136 167//136 91//136
f 167//87 166//87 92//87
f 166//88 168//88 93//88
f 168//89 175//89 94//89
f 175//137 176//137 95//137
f 176//138 177//138 96//138
f 177//139 171//139 97//139
f 171//93 170//93 98//93
f 170//94 126//94 9//94
f 98//5 9//5 10//5
f 10//5 11//5 98//5
f 11//5 12//5 98//5
f 12//5 13//5 14//5
f 14//140 15//140 16//140
f 16//5 17//5 20//5
f 17//5 18//5 20//5
f 18//5 19//5 20//5
f 20//5 21//5 22//5
f 22//5 23//5 20//5
f 23//5 24//5 20//5
f 24//5 25//5 26//5
f 26//140 27//140 28//140
f 28//5 29//5 32//5
f 29//141 30//141 32//141
f 30//140 31//140 32//140
f 32//141 33//141 34//141
f 34//5 35//5 36//5
f 36//5 37//5 40//5
f 37//5 38//5 40//5
f 38//5 39//5 40//5
f 40//140 41//140 42//140
f 42//5 43//5 40//5
f 43//5 44//5 40//5
f 44//5 45//5 48//5
f 45//5 46//5 48//5
f 46//141 47//141 48//141
f 48//5 49//5 50//5
f 50//5 51//5 52//5
f 52//5 53//5 54//5
f 54//5 55//5 52//5
f 55//5 56//5 52//5
f 56//5 57//5 58//5
f 58//5 59//5 60//5
f 60//140 61//140 62//140
f 62//5 63//5 60//5
f 63//5 64//5 60//5
f 64//140 65//140 66//140
f 66//5 67//5 64//5
f 67//5 68//5 64//5
f 68//5 69//5 72//5
f 69//5 70//5 72//5
f 70//141 71//141 72//141
f 72//5 73//5 74//5
f 74//5 75//5 76//5
f 76//5 77//5 78//5
f 78//141 79//141 76//141
f 79//5 80//5 76//5
f 80//5 81//5 82//5
f 82//5 83//5 84//5
f 84//5 85//5 88//5
f 85//5 86//5 88//5
f 86//5 87//5 88//5
f 88//5 89//5 92//5
f 89//5 90//5 92//5
f 90//141 91//141 92//141
f 92//5 93//5 94//5
f 94//5 95//5 96//5
f 96//5 97//5 12//5
f 97//5 98//5 12//5
f 12//5 14//5 20//5
f 14//5 16//5 20//5
f 24//5 26//5 20//5
f 26//5 28//5 20//5
f 32//5 34//5 28//5
f 34//5 36//5 28//5
f 48//5 50//5 52//5
f 56//5 58//5 60//5
f 72//5 74//5 76//5
f 80//5 82//5 76//5
f 82//5 84//5 76//5
f 92//5 94//5 12//5
f 94//5 96//5 12//5
f 36//5 40//5 44//5
f 44//5 48//5 60//5
f 48//5 52//5 60//5
f 52//5 56//5 60//5
f 60//5 64//5 68//5
f 68//5 72//5 60//5
f 72//5 76//5 60//5
f 84//5 88//5 92//5
f 12//5 20//5 28//5
f 28//5 36//5 44//5
f 76//5 84//5 92//5
f 92//5 12//5 60//5
f 12//5 28//5 60//5
f 28//5 44//5 60//5
f 114//5 111//5 5//5
f 111//5 7//5 5//5
f 5//5 1//5 186//5
f 100//5 5//5 102//5
f 1//5 3//5 130//5
f 3//142 131//142 130//142
f 113//5 114//5 5//5
f 112//5 113//5 5//5
f 1//5 130//5 152//5
f 1//5 152//5 164//5
f 101//5 112//5 5//5
f 100//5 101//5 5//5
f 1//5 164//5 162//5
f 1//5 162//5 165//5
f 102//5 5//5 115//5
f 115//5 5//5 103//5
f 1//5 165//5 187//5
f 1//5 187//5 179//5
f 103//5 5//5 104//5
f 104//5 5//5 99//5
f 1//5 179//5 163//5
f 1//5 163//5 180//5
f 99//5 5//5 123//5
f 123//5 5//5 120//5
f 1//5 180//5 154//5
f 1//5 154//5 159//5
f 120//5 5//5 119//5
f 119//5 5//5 122//5
f 1//5 159//5 160//5
f 1//5 160//5 153//5
f 122//5 5//5 124//5
f 124//5 5//5 121//5
f 1//5 153//5 151//5
f 1//5 151//5 144//5
f 121//5 5//5 118//5
f 118//5 5//5 186//5
f 1//5 144//5 142//5
f 1//5 142//5 128//5
f 1//5 128//5 125//5
f 1//5 125//5 189//5
f 181//5 186//5 1//5
f 178//5 181//5 1//5
f 1//5 189//5 185//5
f 1//5 185//5 183//5
f 188//5 178//5 1//5
f 184//5 188//5 1//5
f 1//5 183//5 182//5
f 192//3 196//3 197//3
f 190//3 8//3 6//3
f 194//6 191//6 193//6
f 196//5 190//5 195//5
