# Blender v2.79 (sub 0) OBJ File: 'Chassis.blend'
# www.blender.org
mtllib Chassis.mtl
o Cube.002_Cube.012
v -15.449345 30.510010 20.000002
v -15.449345 34.510010 20.000002
v -11.449347 30.510017 20.000002
v -11.449347 34.510010 20.000002
v -16.958794 2.766956 20.000002
v -16.958794 6.766956 20.000002
v -14.138147 2.766956 20.000002
v -14.138147 6.766956 20.000002
v 21.567360 24.805962 20.000000
v 23.688683 26.927288 20.000000
v 35.842850 10.515663 20.000000
v 37.964172 12.636982 20.000000
v 40.717430 -16.489977 20.000002
v 40.717430 -8.489981 20.000002
v 37.161930 -16.489979 20.000002
v 37.161930 -8.489981 20.000002
v -14.148027 -16.489988 20.000000
v -14.148027 -8.489990 20.000000
v -16.948027 -16.489990 20.000000
v -16.948027 -8.489992 20.000000
v -14.000132 -32.602997 -7.000630
v -14.000130 27.716862 -7.000630
v 36.882641 -32.602985 -7.000630
v 18.667353 27.655132 -7.000630
v 37.164158 9.143509 -7.000630
v -5.988888 -32.602997 -6.932973
v 6.011108 -32.602993 -6.932973
v -5.988886 27.716862 -6.932973
v 6.011113 27.716862 -6.932973
v -12.449343 21.201904 -7.000630
v -12.449343 -3.489990 -7.000630
v 14.650313 21.201904 -7.000630
v 14.650316 16.841774 -7.000630
v 14.650316 -3.489983 -7.000630
v -17.047852 -35.489990 -9.038622
v -17.047852 -35.489990 -4.000628
v -17.047852 35.510017 -9.038622
v -17.047852 35.510017 -4.000628
v 40.952148 -35.489975 -9.038622
v 40.952148 -35.489975 -4.000628
v 40.952148 35.510025 -9.038622
v 40.952148 35.510025 -4.000628
v 36.882641 -32.602985 -4.000628
v 6.011108 -32.602993 -4.000628
v 6.011109 -35.489983 -6.932973
v -5.988892 -35.489986 -4.000628
v -5.988892 -35.489986 -6.932973
v -5.988888 -32.602997 -4.000630
v 6.011109 -35.489983 -4.000628
v -14.000132 -32.602997 -4.000628
v 37.164158 9.143509 -4.000630
v -12.449343 -3.489990 -9.038622
v 14.650316 -3.489983 -9.038622
v 14.650313 21.201904 -9.038622
v 14.650319 0.580353 -9.038622
v -12.449343 21.201904 -9.038622
v 18.667353 27.655121 -4.000628
v 6.011113 27.716862 -4.000628
v -5.988886 27.716862 -4.000628
v -5.988886 35.510017 -6.932973
v -5.988888 35.510017 -4.000630
v -14.000128 27.716862 -4.000628
v 6.011112 35.510017 -6.932975
v 6.011110 35.510017 -4.000630
v -14.148029 -16.489988 -4.000627
v -16.948027 -16.489990 -4.000627
v -14.148027 -10.624588 -4.000628
v -14.148029 -8.489990 -4.000627
v -16.948027 -8.489992 -4.000627
v 40.717430 -16.489977 -4.000627
v 37.161930 -16.489979 -4.000628
v 40.717430 -8.489981 -4.000627
v 37.161930 -8.489981 -4.000628
v 37.964172 12.636982 -4.000628
v 35.842850 10.515663 -4.000630
v 21.567360 24.805962 -4.000628
v 23.688683 26.927288 -4.000628
v -16.958794 2.766956 -4.000627
v -14.138149 2.766956 -4.000628
v -16.958796 6.766956 -4.000628
v -14.138147 6.766956 -4.000628
v -15.449345 30.510002 -4.000628
v -11.449347 30.510017 -4.000630
v -15.449347 34.510010 -4.000630
v -11.449347 34.510010 -4.000630
v 7.346177 -35.295212 20.000000
v 7.346177 -32.704788 20.000000
v 16.653824 -35.295212 20.000000
v 16.653824 -32.704788 20.000000
v 16.653824 -34.494713 -4.000628
v 16.653824 -35.295212 -4.000628
v 7.346177 -32.704788 -4.000628
v 16.653824 -32.704788 -4.000628
v 7.346177 -35.295212 -4.000628
vn 0.0000 0.0000 1.0000
vn 1.0000 -0.0000 0.0000
vn 0.0000 -1.0000 -0.0000
vn -0.0000 1.0000 0.0000
vn -1.0000 0.0067 0.0000
vn -1.0000 0.0000 0.0000
vn -0.0049 -1.0000 -0.0000
vn 0.0000 0.0000 -1.0000
vn -0.7074 -0.7068 0.0000
vn 0.7071 -0.7071 0.0000
vn 0.7075 0.7067 0.0000
vn -0.7071 0.7071 0.0000
vn -0.7075 -0.7067 0.0000
vn -0.0018 -0.9759 0.2184
vn 0.0000 -0.7387 0.6740
vn 0.0001 0.0000 1.0000
vn -0.0001 -0.0000 1.0000
usemtl None
s off
f 2//1 3//1 4//1
f 6//1 7//1 8//1
f 12//1 9//1 11//1
f 15//1 14//1 16//1
f 20//1 17//1 18//1
f 22//2 50//2 21//2
f 22//3 28//3 62//3
f 23//4 27//4 43//4
f 22//1 32//1 24//1
f 23//5 51//5 25//5
f 45//6 44//6 27//6
f 50//4 26//4 21//4
f 60//2 59//2 28//2
f 29//1 60//1 28//1
f 57//7 29//7 24//7
f 25//1 33//1 34//1
f 36//6 37//6 35//6
f 37//4 60//4 63//4
f 42//2 39//2 41//2
f 45//3 47//3 35//3
f 41//8 55//8 54//8
f 74//1 51//1 72//1
f 26//2 46//2 47//2
f 33//6 54//6 55//6
f 45//1 26//1 47//1
f 31//4 53//4 52//4
f 66//1 36//1 50//1
f 53//8 39//8 35//8
f 57//9 25//9 51//9
f 29//6 64//6 63//6
f 30//2 52//2 56//2
f 32//3 56//3 54//3
f 66//6 20//6 69//6
f 68//1 50//1 79//1
f 69//4 18//4 68//4
f 67//2 18//2 17//2
f 65//3 19//3 66//3
f 71//6 16//6 73//6
f 73//4 14//4 72//4
f 72//2 13//2 70//2
f 70//3 15//3 71//3
f 90//1 40//1 43//1
f 74//10 11//10 75//10
f 57//1 77//1 42//1
f 77//11 12//11 74//11
f 76//12 10//12 77//12
f 75//13 9//13 76//13
f 81//2 7//2 79//2
f 62//1 83//1 82//1
f 80//4 8//4 81//4
f 78//6 6//6 80//6
f 79//3 5//3 78//3
f 85//2 3//2 83//2
f 85//1 38//1 84//1
f 84//4 4//4 85//4
f 84//6 1//6 2//6
f 83//3 1//3 82//3
f 87//1 88//1 89//1
f 94//6 87//6 92//6
f 91//1 49//1 40//1
f 90//2 89//2 88//2
f 92//4 89//4 93//4
f 91//3 86//3 94//3
f 2//1 1//1 3//1
f 6//1 5//1 7//1
f 12//1 10//1 9//1
f 15//1 13//1 14//1
f 20//1 19//1 17//1
f 22//2 62//2 50//2
f 22//14 24//14 28//14
f 24//15 29//15 28//15
f 28//3 59//3 62//3
f 23//4 21//4 27//4
f 21//4 26//4 27//4
f 27//4 44//4 43//4
f 22//1 31//1 30//1
f 32//1 33//1 24//1
f 22//1 30//1 32//1
f 23//5 43//5 51//5
f 45//6 49//6 44//6
f 50//4 48//4 26//4
f 60//2 61//2 59//2
f 29//1 63//1 60//1
f 57//7 58//7 29//7
f 31//1 22//1 21//1
f 21//1 23//1 34//1
f 23//1 25//1 34//1
f 25//1 24//1 33//1
f 34//1 31//1 21//1
f 36//6 38//6 37//6
f 37//4 38//4 60//4
f 38//4 61//4 60//4
f 42//4 41//4 63//4
f 41//4 37//4 63//4
f 63//4 64//4 42//4
f 42//2 40//2 39//2
f 35//3 39//3 45//3
f 39//3 40//3 45//3
f 40//3 49//3 45//3
f 47//3 46//3 36//3
f 47//3 36//3 35//3
f 56//8 37//8 54//8
f 37//8 41//8 54//8
f 75//1 76//1 51//1
f 76//1 57//1 51//1
f 74//1 75//1 51//1
f 43//1 71//1 73//1
f 72//1 40//1 42//1
f 51//1 43//1 73//1
f 73//1 72//1 51//1
f 72//1 42//1 74//1
f 26//2 48//2 46//2
f 55//6 53//6 34//6
f 33//6 32//6 54//6
f 55//6 34//6 33//6
f 45//1 27//1 26//1
f 31//4 34//4 53//4
f 36//1 46//1 50//1
f 46//1 48//1 50//1
f 50//1 67//1 65//1
f 65//1 66//1 50//1
f 53//8 55//8 39//8
f 55//8 41//8 39//8
f 35//8 37//8 52//8
f 37//8 56//8 52//8
f 35//8 52//8 53//8
f 57//9 24//9 25//9
f 29//6 58//6 64//6
f 30//2 31//2 52//2
f 32//3 30//3 56//3
f 66//6 19//6 20//6
f 38//1 36//1 78//1
f 36//1 66//1 69//1
f 36//1 69//1 78//1
f 78//16 80//16 38//16
f 62//1 81//1 79//1
f 50//1 62//1 79//1
f 79//1 78//1 69//1
f 68//17 67//17 50//17
f 79//1 69//1 68//1
f 69//4 20//4 18//4
f 17//2 65//2 67//2
f 67//2 68//2 18//2
f 65//3 17//3 19//3
f 71//6 15//6 16//6
f 73//4 16//4 14//4
f 72//2 14//2 13//2
f 70//3 13//3 15//3
f 40//1 72//1 70//1
f 70//1 71//1 43//1
f 44//1 49//1 94//1
f 44//1 94//1 92//1
f 40//1 70//1 43//1
f 43//1 44//1 93//1
f 44//1 92//1 93//1
f 93//1 90//1 43//1
f 74//10 12//10 11//10
f 57//1 76//1 77//1
f 77//1 74//1 42//1
f 42//1 64//1 57//1
f 64//1 58//1 57//1
f 77//11 10//11 12//11
f 76//12 9//12 10//12
f 75//13 11//13 9//13
f 81//2 8//2 7//2
f 84//1 38//1 82//1
f 38//1 80//1 82//1
f 80//1 81//1 62//1
f 62//1 59//1 83//1
f 59//1 61//1 83//1
f 61//1 85//1 83//1
f 82//1 80//1 62//1
f 80//4 6//4 8//4
f 78//6 5//6 6//6
f 79//3 7//3 5//3
f 85//2 4//2 3//2
f 85//1 61//1 38//1
f 84//4 2//4 4//4
f 84//6 82//6 1//6
f 83//3 3//3 1//3
f 87//1 86//1 88//1
f 94//6 86//6 87//6
f 40//1 90//1 91//1
f 91//1 94//1 49//1
f 88//2 91//2 90//2
f 90//2 93//2 89//2
f 92//4 87//4 89//4
f 91//3 88//3 86//3
